<?xml version="1.0" encoding="UTF-8" standalone="no"?>
<svg xmlns="http://www.w3.org/2000/svg" width="32" height="32" viewBox="0 0 32 32">
  <!-- Définition du dégradé pour le blason universitaire -->
  <defs>
    <linearGradient id="gradBlason" x1="0%" y1="0%" x2="0%" y2="100%">
      <stop offset="0%" style="stop-color:#3a0ca3;stop-opacity:1" />
      <stop offset="100%" style="stop-color:#4361ee;stop-opacity:1" />
    </linearGradient>
  </defs>
  
  <!-- Bouclier/blason universitaire -->
  <path d="M8 4 L24 4 L27 10 L24 18 L16 28 L8 18 L5 10 Z" fill="url(#gradBlason)" stroke="#d4af37" stroke-width="0.5" />
  
  <!-- Livre ouvert au centre du blason -->
  <path d="M10 16 L16 18 L22 16 L22 20 L16 22 L10 20 Z" fill="#fff" stroke="#d4af37" stroke-width="0.5" />
  <path d="M16 18 L16 22" fill="none" stroke="#d4af37" stroke-width="0.5" />
  
  <!-- Colonnes stylisées simplifiées -->
  <rect x="12" y="11" width="1.5" height="5" rx="0.5" ry="0.5" fill="#fff" />
  <rect x="15" y="11" width="1.5" height="5" rx="0.5" ry="0.5" fill="#fff" />
  <rect x="18" y="11" width="1.5" height="5" rx="0.5" ry="0.5" fill="#fff" />
  
  <!-- Toit des colonnes -->
  <path d="M11 11 L20 11 L19 9.5 L12 9.5 Z" fill="#fff" />
  
  <!-- Étoile (symbole d'excellence) -->
  <path d="M16 7 L17 8.5 L19 8.5 L17.5 9.5 L18 11.5 L16 10.5 L14 11.5 L14.5 9.5 L13 8.5 L15 8.5 Z" fill="#ffcc00" />
</svg>
